<?xml version="1.0" encoding="UTF-8"?>
<!DOCTYPE svg PUBLIC "-//W3C//DTD SVG 1.1//EN" "http://www.w3.org/Graphics/SVG/1.1/DTD/svg11.dtd">
<!-- Creator: CorelDRAW X6 -->
<svg xmlns="http://www.w3.org/2000/svg" xml:space="preserve" width="3.33333in" height="3.33333in" version="1.1" style="shape-rendering:geometricPrecision; text-rendering:geometricPrecision; image-rendering:optimizeQuality; fill-rule:evenodd; clip-rule:evenodd"
viewBox="0 0 3333 3333"
 xmlns:xlink="http://www.w3.org/1999/xlink">
 <defs>
  <style type="text/css">
   <![CDATA[
    .fil0 {fill:#201E1E}
    .fil1 {fill:#FFCC00}
   ]]>
  </style>
 </defs>
 <g id="Layer_x0020_1">
  <metadata id="CorelCorpID_0Corel-Layer"/>
  <path class="fil0" d="M1523 2137l52 -192c7,2 13,3 20,4l-26 197c-15,-2 -31,-5 -46,-9zm-67 -21l76 -184c6,2 13,5 19,7l-52 192c-15,-4 -30,-9 -44,-15l0 0zm-64 -30c14,7 27,14 42,21l76 -184c-6,-3 -12,-6 -18,-9l-99 172zm-59 -38c12,9 25,18 39,26l99 -172c-6,-4 -11,-7 -17,-11l-121 158zm-54 -45l141 -141c5,5 10,9 15,13l-121 158c-12,-10 -24,-20 -35,-31l0 0zm-48 -52l158 -121c4,5 9,10 13,15l-141 141c-11,-11 -21,-23 -31,-35l0 0zm-40 -58l172 -99c4,6 7,11 11,17l-158 121c-9,-12 -18,-25 -26,-39l0 0zm-33 -62c6,14 13,28 21,42l172 -99c-3,-6 -6,-12 -9,-18l-184 76zm434 318c15,2 31,3 46,3l0 -199c-7,0 -14,-1 -20,-1l-26 197z"/>
  <path class="fil0" d="M1119 1696l197 -26c1,7 2,13 4,20l-192 52c-4,-15 -7,-30 -9,-46zm-6 -70c0,16 1,31 3,46l197 -26c-1,-7 -1,-14 -1,-20l-199 0zm3 -70c-2,15 -3,31 -3,46l199 0c0,-7 1,-14 1,-20l-197 -26zm12 -69l192 52c-2,7 -3,13 -4,20l-197 -26c2,-15 5,-31 9,-46l0 0zm21 -67c-6,14 -11,29 -15,44l192 51c2,-7 4,-13 7,-19l-184 -76zm30 -64l172 99c-3,6 -6,12 -9,18l-184 -76c6,-14 13,-28 21,-42l0 0zm38 -59l158 121c-4,6 -8,11 -11,17l-172 -99c8,-13 17,-26 26,-39l0 0zm45 -54c-11,11 -21,23 -31,35l158 121c4,-5 9,-10 13,-15l-141 -141zm-128 523c4,15 9,30 15,44l184 -76c-2,-6 -5,-13 -7,-19l-192 52z"/>
  <path class="fil0" d="M1372 1154l99 172c-6,4 -11,7 -17,11l-121 -158c12,-9 25,-18 39,-26zm62 -33l76 184c-6,3 -12,6 -18,9l-99 -172c14,-7 27,-14 42,-21l0 0zm66 -24c-15,4 -30,9 -44,15l76 184c6,-2 13,-5 19,-7l-52 -192zm69 -15l26 197c-7,1 -13,2 -20,4l-52 -192c15,-4 30,-7 46,-9l0 0zm70 -6c-16,0 -31,1 -46,3l26 197c7,-1 14,-1 20,-1l0 -199zm-325 118c-12,10 -24,20 -35,31l141 141c5,-5 10,-9 15,-13l-121 -158z"/>
  <path class="fil1" d="M2074 2209l-43 -214 0 0c97,-97 158,-232 158,-380 0,-149 -60,-283 -158,-380 -95,-95 -225,-154 -368,-157l0 199c89,3 169,40 228,99 61,61 99,146 99,240 0,94 -38,178 -99,240 -59,59 -139,96 -228,99l0 199c75,-2 147,-19 211,-48l199 106z"/>
  <path class="fil0" d="M1671 1534l331 -164 -279 243c-2,-35 -23,-64 -52,-78l0 0z"/>
  <path class="fil0" d="M1632 1546c-39,0 -70,31 -70,70 0,39 31,70 70,70 39,0 70,-31 70,-70 0,-39 -31,-70 -70,-70z"/>
 </g>
</svg>
