
<svg version="1.1" id="Layer_1" xmlns="http://www.w3.org/2000/svg" xmlns:xlink="http://www.w3.org/1999/xlink" x="0px" y="0px"
	 width="60px" height="29px" viewBox="0 0 60 29" enable-background="new 0 0 60 29" xml:space="preserve">
	  <style>
			.outer_line1
			
			{
				stroke-dasharray:90;
				stroke-dashoffset:0;
			}
			
			</style>	

<path class="outer_line1"  fill="none" stroke="#c5c5c5" stroke-width="7" stroke-linejoin="round" stroke-miterlimit="10" d="M7.5,29V8.744
	c0,0-0.856-6.29,6.549-6.096h6.731"/>
<line class="outer_line1" fill="none" stroke="#c5c5c5" stroke-width="7" stroke-linejoin="round" stroke-miterlimit="10" x1="1.806" y1="11.792" x2="17.696" y2="11.792"/>
<path class="outer_line1" fill="none" stroke="#c5c5c5" stroke-width="9" stroke-linejoin="round" stroke-miterlimit="10" d="M41.723,25.551
	c0,0-16.257,0-16.418,0c0.237,0,1.825-1.34,1.969-1.52c0.974-1.209,1.948-2.418,2.932-3.62c2.002-2.454,3.978-4.934,5.986-7.384
	c0.985-1.201,1.75-2.546,2.066-4.11c0.44-2.17-0.78-4.982-2.81-5.914C31.084,1,28.212,2.898,24.514,7.429"/>
<path class="outer_line1" fill="none" stroke="#c5c5c5" stroke-width="9" stroke-linejoin="round" stroke-miterlimit="10" d="M58.564,25.551
	c0,0-7.026,0-7.031,0c-1.124,0-2.755-1.586-3.395-2.336c-2.539-2.975-1.912-8.425,1.15-10.876c0.773-0.619,2.074-1.187,3.079-1.2
	h6.196"/>
</svg>


