<?xml version="1.0" encoding="utf-8"?>
<!-- Generator: Adobe Illustrator 16.0.0, SVG Export Plug-In . SVG Version: 6.00 Build 0)  -->
<!DOCTYPE svg PUBLIC "-//W3C//DTD SVG 1.1//EN" "http://www.w3.org/Graphics/SVG/1.1/DTD/svg11.dtd">
<svg version="1.1" id="Layer_1" xmlns="http://www.w3.org/2000/svg" xmlns:xlink="http://www.w3.org/1999/xlink" x="0px" y="0px"
	 width="30px" height="30px" viewBox="0 0 30 30" enable-background="new 0 0 30 30" xml:space="preserve">
<g display="none">
	<g display="inline">
		<path fill="#010101" d="M26.774,15.783c-0.259,0-0.47,0.21-0.47,0.469v12.809H3.695v-3.789c0-0.26-0.21-0.47-0.47-0.47
			c-0.26,0-0.47,0.21-0.47,0.47v4.259c0,0.259,0.21,0.47,0.47,0.47h23.549c0.259,0,0.47-0.211,0.47-0.47V16.252
			C27.244,15.993,27.034,15.783,26.774,15.783z"/>
	</g>
</g>
<g display="none">
	<g display="inline">
		<path fill="#010101" d="M29.814,11.119L15.284,0.096c-0.167-0.127-0.4-0.127-0.567,0l-5.76,4.37V2.944h0.533
			c0.259,0,0.47-0.21,0.47-0.47V0.47C9.958,0.21,9.748,0,9.489,0H2.474c-0.259,0-0.47,0.21-0.47,0.47v2.004
			c0,0.259,0.21,0.47,0.47,0.47h0.533v6.035l-2.82,2.14c-0.161,0.122-0.226,0.333-0.162,0.524c0.064,0.191,0.244,0.32,0.445,0.32
			h2.286v10.803c0,0.26,0.21,0.471,0.47,0.471s0.47-0.211,0.47-0.471V11.493c0-0.259-0.21-0.47-0.47-0.47H1.866L15,1.06
			l13.134,9.963h-1.359c-0.259,0-0.47,0.21-0.47,0.47v2.255c0,0.259,0.211,0.47,0.47,0.47c0.26,0,0.47-0.21,0.47-0.47v-1.785h2.286
			c0.202,0,0.381-0.129,0.445-0.32C30.04,11.451,29.975,11.24,29.814,11.119z M2.944,2.004V0.939h6.075v1.065H2.944z M8.017,5.178
			L3.946,8.266V2.944h4.071V5.178z"/>
	</g>
</g>
<g display="none">
	<g display="inline">
		<path fill="#010101" d="M25.172,25.841l-3.508-3.507c-0.418-0.419-1.068-0.53-1.603-0.275l-2.321-2.321
			c1.027-1.282,1.645-2.907,1.645-4.675c0-1.689-0.55-3.284-1.59-4.611c-0.16-0.205-0.455-0.24-0.659-0.081
			c-0.204,0.16-0.24,0.456-0.08,0.66c0.909,1.16,1.39,2.554,1.39,4.032c0,3.609-2.937,6.545-6.545,6.545s-6.545-2.936-6.545-6.545
			c0-3.609,2.936-6.545,6.545-6.545c1.186,0,2.348,0.321,3.36,0.927c0.223,0.133,0.512,0.061,0.645-0.162
			c0.133-0.222,0.061-0.511-0.162-0.644c-1.157-0.694-2.486-1.061-3.842-1.061c-4.127,0-7.484,3.357-7.484,7.484
			s3.357,7.484,7.484,7.484c2.022,0,3.859-0.807,5.208-2.113l2.29,2.29c-0.249,0.523-0.159,1.17,0.274,1.603l3.507,3.508
			c0.544,0.543,1.45,0.543,1.993,0C25.721,27.284,25.721,26.391,25.172,25.841z M24.532,27.143
			c-0.175,0.205-0.498,0.218-0.688,0.027l-3.508-3.508c-0.171-0.171-0.182-0.453-0.025-0.638c0.176-0.205,0.498-0.218,0.689-0.026
			l3.508,3.507C24.678,26.676,24.689,26.959,24.532,27.143z"/>
	</g>
</g>
<g display="none">
	<g display="inline">
		<path fill="#010101" d="M11.9,9.583c-3.022,0-5.48,2.458-5.48,5.48s2.458,5.48,5.48,5.48c3.021,0,5.48-2.459,5.48-5.48
			S14.921,9.583,11.9,9.583z M11.9,19.604c-2.504,0-4.541-2.037-4.541-4.541s2.037-4.541,4.541-4.541
			c2.503,0,4.541,2.037,4.541,4.541S14.403,19.604,11.9,19.604z"/>
	</g>
</g>
<g display="none">
	<g display="inline">
		<path fill="#010101" d="M15.832,14.861c-0.616-1.295-2.306-2.272-3.932-2.272s-3.316,0.977-3.932,2.272
			c-0.061,0.127-0.061,0.275,0,0.403c0.615,1.295,2.306,2.273,3.932,2.273s3.316-0.978,3.932-2.273
			C15.893,15.137,15.893,14.989,15.832,14.861z M10.305,16.223c-0.584-0.277-1.085-0.688-1.378-1.16
			c0.293-0.473,0.794-0.883,1.378-1.16c-0.238,0.326-0.378,0.727-0.378,1.16S10.068,15.896,10.305,16.223z M11.9,16.096
			c-0.57,0-1.034-0.463-1.034-1.033c0-0.57,0.464-1.033,1.034-1.033s1.033,0.463,1.033,1.033
			C12.933,15.633,12.47,16.096,11.9,16.096z M13.495,16.223c0.237-0.326,0.378-0.727,0.378-1.16s-0.141-0.834-0.378-1.16
			c0.584,0.277,1.085,0.687,1.378,1.16C14.58,15.535,14.079,15.945,13.495,16.223z"/>
	</g>
</g>
<g display="none">
	<g id="calendar_1_" display="inline">
		<path fill="#040305" d="M27.083,3.219h-3.927V1.406c0-0.501-0.405-0.906-0.906-0.906s-0.906,0.405-0.906,0.906v1.813h-5.438V1.406
			C15.906,0.905,15.5,0.5,15,0.5c-0.5,0-0.906,0.405-0.906,0.906v1.813H8.656V1.406C8.656,0.905,8.25,0.5,7.75,0.5
			S6.844,0.905,6.844,1.406v1.813H2.917C1.582,3.219,0.5,4.3,0.5,5.635v21.448c0,1.335,1.082,2.417,2.417,2.417h24.167
			c1.335,0,2.417-1.082,2.417-2.417V5.635C29.5,4.3,28.418,3.219,27.083,3.219z M27.688,27.083c0,0.334-0.271,0.604-0.604,0.604
			H2.917c-0.333,0-0.604-0.271-0.604-0.604V5.635c0-0.333,0.271-0.604,0.604-0.604h3.927v1.813c0,0.501,0.406,0.906,0.906,0.906
			s0.906-0.405,0.906-0.906V5.031h5.438v1.813C14.094,7.345,14.5,7.75,15,7.75c0.5,0,0.906-0.405,0.906-0.906V5.031h5.438v1.813
			c0,0.501,0.405,0.906,0.906,0.906s0.906-0.405,0.906-0.906V5.031h3.927c0.334,0,0.604,0.271,0.604,0.604V27.083z"/>
		<rect x="6.844" y="11.375" fill="#040305" width="3.625" height="2.719"/>
		<rect x="6.844" y="15.906" fill="#040305" width="3.625" height="2.719"/>
		<rect x="6.844" y="20.438" fill="#040305" width="3.625" height="2.719"/>
		<rect x="13.188" y="20.438" fill="#040305" width="3.625" height="2.719"/>
		<rect x="13.188" y="15.906" fill="#040305" width="3.625" height="2.719"/>
		<rect x="13.188" y="11.375" fill="#040305" width="3.625" height="2.719"/>
		<rect x="19.531" y="20.438" fill="#040305" width="3.625" height="2.719"/>
		<rect x="19.531" y="15.906" fill="#040305" width="3.625" height="2.719"/>
		<rect x="19.531" y="11.375" fill="#040305" width="3.625" height="2.719"/>
	</g>
</g>
<g>
	<g>
		<path fill="#010101" d="M14.162,1C7.992,1,2.969,6.023,2.969,12.192c0,0.702,0.063,1.411,0.199,2.102
			c0.005,0.041,0.029,0.164,0.075,0.375c0.17,0.755,0.422,1.498,0.75,2.207c1.206,2.84,3.857,7.199,9.675,11.871
			c0.147,0.117,0.323,0.176,0.498,0.176s0.351-0.059,0.498-0.176c5.812-4.672,8.47-9.031,9.676-11.871
			c0.328-0.709,0.579-1.446,0.749-2.207c0.047-0.211,0.07-0.334,0.076-0.375c0.129-0.691,0.199-1.4,0.199-2.102
			C25.354,6.023,20.331,1,14.162,1z M23.597,14.019c0,0.012-0.005,0.023-0.005,0.035c-0.007,0.029-0.024,0.117-0.053,0.251
			c0,0.006,0,0.006,0,0.013c-0.146,0.655-0.363,1.293-0.65,1.909c-0.005,0.004-0.005,0.016-0.012,0.023
			c-1.094,2.592-3.495,6.549-8.715,10.863C8.94,22.799,6.54,18.842,5.445,16.25c-0.006-0.008-0.006-0.02-0.012-0.023
			c-0.281-0.61-0.497-1.254-0.65-1.909c0-0.006,0-0.006,0-0.013c-0.034-0.134-0.046-0.222-0.053-0.251
			c0-0.012-0.005-0.023-0.005-0.042c-0.117-0.602-0.176-1.211-0.176-1.825c0-5.298,4.314-9.612,9.613-9.612
			c5.297,0,9.611,4.314,9.611,9.612C23.772,12.807,23.714,13.421,23.597,14.019z"/>
		<path fill="#010101" d="M14.162,5.209c-3.917,0-7.107,3.19-7.107,7.106c0,3.916,3.19,7.107,7.107,7.107
			c3.916,0,7.106-3.191,7.106-7.107C21.268,8.399,18.077,5.209,14.162,5.209z M14.162,17.84c-3.05,0-5.526-2.481-5.526-5.525
			s2.481-5.525,5.526-5.525c3.042,0,5.525,2.481,5.525,5.525S17.211,17.84,14.162,17.84z"/>
	</g>
</g>
</svg>
